<?xml version="1.0" encoding="UTF-8"?>
<svg id="Livello_3" data-name="Livello 3" xmlns="http://www.w3.org/2000/svg" viewBox="0 0 487.66 348.26">
  <defs>
    <style>
      .cls-1 {
        fill: #a0d6ca;
      }

      .cls-2 {
        fill: #07404b;
      }
    </style>
  </defs>
  <circle class="cls-2" cx="237.84" cy="175.72" r="87.83"/>
  <g>
    <path class="cls-1" d="M217.72,149.92c-9.89-.41-30.91,.61-30.91,25.81,0,19.38,13.16,26.83,30.91,25.91v-20.4h-15.71v-15.61h31.32v49.98c0,.41-.41,.92-1.12,.92h-13.26c-19.99,0-47.84-4.59-47.84-40.8s27.54-40.8,47.84-40.8h13.26c.71,0,1.12,.51,1.12,.92v14.08h-15.61Z"/>
    <path class="cls-1" d="M294.59,216.52h-37.64c-.61,0-1.12-.51-1.12-.92v-79.77c0-.41,.51-.92,1.12-.92h37.64v14.79h-23.16v18.46h32.03c.61,0,1.12,.41,1.12,.92v12.95c0,.41-.51,.92-1.12,.92h-32.03v18.36h23.16v15.2Z"/>
  </g>
</svg>