<?xml version="1.0" standalone="no"?>
<!DOCTYPE svg PUBLIC "-//W3C//DTD SVG 20010904//EN"
 "http://www.w3.org/TR/2001/REC-SVG-20010904/DTD/svg10.dtd">
<svg version="1.0" xmlns="http://www.w3.org/2000/svg"
 width="1201.000000pt" height="1201.000000pt" viewBox="0 0 1201.000000 1201.000000"
 preserveAspectRatio="xMidYMid meet">
<metadata>
Created by potrace 1.14, written by Peter Selinger 2001-2017
</metadata>
<g transform="translate(0.000000,1201.000000) scale(0.100000,-0.100000)"
fill="#000000" stroke="none">
<path d="M5685 12004 c-294 -19 -634 -63 -885 -115 -1440 -298 -2706 -1102
-3595 -2284 -636 -846 -1042 -1868 -1159 -2915 -49 -438 -49 -924 0 -1365 106
-950 454 -1889 992 -2680 226 -332 419 -563 731 -876 411 -411 780 -696 1256
-969 749 -430 1558 -684 2455 -772 208 -20 910 -17 1115 5 1247 135 2324 589
3275 1380 185 154 580 549 737 737 767 920 1237 2017 1367 3190 55 488 45
1050 -25 1535 -195 1353 -856 2607 -1864 3539 -440 406 -888 714 -1430 981
-656 324 -1329 514 -2085 591 -148 14 -746 27 -885 18z m-5 -3234 c19 -19 20
-33 20 -511 l0 -492 -682 5 c-376 3 -741 2 -813 -3 -519 -34 -930 -190 -1206
-457 -113 -108 -173 -183 -244 -303 -291 -493 -314 -1354 -50 -1894 237 -484
691 -773 1350 -860 135 -18 492 -32 548 -21 l37 7 0 694 0 695 -540 0 -540 0
0 535 0 535 1070 0 1070 0 0 -1718 0 -1719 -21 -19 c-20 -18 -45 -19 -658 -18
-656 0 -814 7 -1121 45 -1286 160 -2062 756 -2335 1794 -161 610 -149 1401 31
1974 305 973 1114 1555 2379 1711 277 34 369 37 1043 39 630 1 642 1 662 -19z
m4200 -480 l0 -500 -790 0 -790 0 0 -635 0 -635 1115 0 c1102 0 1115 0 1135
-20 19 -19 20 -33 20 -478 0 -380 -2 -461 -14 -478 -14 -19 -40 -19 -1133 -24
l-1118 -5 -3 -627 -2 -628 790 0 790 0 0 -520 0 -520 -1299 2 c-1261 3 -1300
4 -1320 22 l-21 19 0 2744 c0 2730 0 2743 20 2763 20 20 33 20 1320 20 l1300
0 0 -500z"/>
</g>
</svg>
